<svg width="38" height="38" viewBox="0 0 38 38" fill="none" xmlns="http://www.w3.org/2000/svg">
<path d="M37.2812 36.4321H36.0413V17.5921L37.1613 17.9178C37.3898 17.9807 37.6298 17.8493 37.6927 17.6207C37.7613 17.3921 37.6298 17.1578 37.4013 17.0893C33.4412 15.9578 30.7213 15.1807 26.5613 13.9864V7.76355L26.7384 7.84926C27.1898 8.08355 27.7155 8.06069 28.1498 7.79784C29.1155 7.20355 29.0584 5.78641 28.0527 5.27212L19.1898 0.757836C19.0698 0.694979 18.9213 0.694979 18.8013 0.757836L9.93839 5.27784C9.45268 5.52355 9.14982 6.02069 9.14982 6.56926C9.14982 7.64926 10.2927 8.34641 11.2527 7.85498L11.4298 7.76355V13.9864C7.26982 15.1807 4.54982 15.9578 0.589821 17.0893C0.366964 17.1578 0.235536 17.3921 0.298393 17.6207C0.36125 17.8493 0.60125 17.9807 0.829821 17.9178L1.94982 17.5921V36.4321H0.709821C0.475536 36.4321 0.28125 36.6264 0.28125 36.8607C0.28125 37.095 0.475536 37.2893 0.709821 37.2893H37.2812C37.5155 37.2893 37.7098 37.095 37.7098 36.8607C37.7098 36.6264 37.5155 36.4321 37.2812 36.4321ZM8.83554 36.4321H5.40696V33.535H8.83554V36.4321ZM8.83554 32.6778H5.40696V30.3464H8.83554V32.6778ZM8.83554 29.4893H5.40696V27.1578H8.83554V29.4893ZM8.83554 26.3007H5.40696V22.0264C5.40696 21.0835 6.17268 20.3121 7.12125 20.3121C8.06411 20.3121 8.83554 21.0835 8.83554 22.0264V26.3007ZM11.4298 36.4321H9.69268V22.0264C9.69268 20.6093 8.53839 19.455 7.12125 19.455C5.69839 19.455 4.54982 20.6093 4.54982 22.0264V36.4321H2.80696V17.3464L11.4298 14.8778V36.4321ZM10.8641 7.08926C10.4698 7.29498 10.007 7.00926 10.007 6.56926C10.007 6.34641 10.1327 6.14069 10.327 6.04355L18.9955 1.62069L27.6641 6.03784C28.0641 6.23784 28.1041 6.82069 27.7041 7.06641C27.5212 7.17498 27.3155 7.18069 27.127 7.08926L19.1898 3.04355C19.1441 3.02069 19.0984 3.01498 19.0527 3.00926C18.967 2.99784 18.8813 3.00355 18.8013 3.04355C18.5098 3.19212 12.4584 6.27784 10.8641 7.08926ZM21.7098 36.4321H16.2812V26.4778H21.7098V36.4321ZM25.7041 36.4321H22.567V26.4778H22.9955C23.2298 26.4778 23.4241 26.2893 23.4241 26.0493C23.4241 25.815 23.2298 25.6207 22.9955 25.6207H14.9955C14.7613 25.6207 14.567 25.815 14.567 26.0493C14.567 26.2893 14.7613 26.4778 14.9955 26.4778H15.4241V36.4321H12.287V7.32926L18.9955 3.90641L25.7041 7.32926V36.4321ZM32.5841 36.4321H29.1555V33.535H32.5841V36.4321ZM32.5841 32.6778H29.1555V30.3464H32.5841V32.6778ZM32.5841 29.4893H29.1555V27.1578H32.5841V29.4893ZM32.5841 26.3007H29.1555V22.0264C29.1555 21.0835 29.927 20.3121 30.8698 20.3121C31.8184 20.3121 32.5841 21.0835 32.5841 22.0264V26.3007ZM35.1841 36.4321H33.4412V22.0264C33.4412 20.6093 32.2927 19.455 30.8698 19.455C29.4527 19.455 28.2984 20.6093 28.2984 22.0264V36.4321H26.5613V14.8778L35.1841 17.3464V36.4321Z" fill="#8753D4"/>
<path d="M27.6971 7.06656C27.5143 7.17514 27.3086 7.18085 27.12 7.08942L19.1829 3.04371C19.1371 3.02085 19.0914 3.01514 19.0457 3.00942C18.96 2.99799 18.8743 3.00371 18.7943 3.04371C18.5029 3.19228 12.4514 6.27799 10.8571 7.08942C10.4629 7.29514 10 7.00942 10 6.56942C10 6.34656 10.1257 6.14085 10.32 6.04371L18.9886 1.62085L27.6571 6.03799C28.0571 6.23799 28.0971 6.82085 27.6971 7.06656Z" fill="#8753D4" fill-opacity="0.6"/>
<path d="M5.40234 27.158H8.83092V29.4894H5.40234V27.158Z" fill="#8753D4" fill-opacity="0.6"/>
<path d="M5.40234 33.5352H8.83092V36.4323H5.40234V33.5352Z" fill="#8753D4" fill-opacity="0.6"/>
<path d="M16.2812 26.4778V36.4321H21.7098V26.4778H16.2812ZM17.9955 32.0264C17.9955 32.2664 17.8013 32.4549 17.567 32.4549C17.3327 32.4549 17.1384 32.2664 17.1384 32.0264V30.8835C17.1384 30.6492 17.3327 30.4549 17.567 30.4549C17.8013 30.4549 17.9955 30.6492 17.9955 30.8835V32.0264Z" fill="#8753D4" fill-opacity="0.6"/>
<path d="M29.1523 33.5352H32.5809V36.4323H29.1523V33.5352Z" fill="#8753D4" fill-opacity="0.6"/>
<path d="M29.1523 27.158H32.5809V29.4894H29.1523V27.158Z" fill="#8753D4" fill-opacity="0.6"/>
<path d="M18.9933 7.3692C17.0219 7.3692 15.4219 8.97492 15.4219 10.9406V19.9635C15.4219 20.1978 15.6162 20.3921 15.8504 20.3921H22.1362C22.3704 20.3921 22.5647 20.1978 22.5647 19.9635V10.9406C22.5647 8.97492 20.9647 7.3692 18.9933 7.3692ZM18.5647 19.5349H16.279V17.0835H18.5647V19.5349ZM18.5647 16.2263H16.279V13.7806H18.5647V16.2263ZM18.5647 12.9235H16.279V10.9406C16.279 9.59206 17.2733 8.47777 18.5647 8.27206V12.9235ZM21.7076 19.5349H19.4219V17.0835H21.7076V19.5349ZM21.7076 16.2263H19.4219V13.7806H21.7076V16.2263ZM21.7076 12.9235H19.4219V8.27206C20.7133 8.47777 21.7076 9.59206 21.7076 10.9406V12.9235Z" fill="#8753D4"/>
<path d="M21.7115 10.9408V12.9236H19.4258V8.27222C20.7172 8.47793 21.7115 9.59222 21.7115 10.9408Z" fill="#8753D4" fill-opacity="0.6"/>
<path d="M18.5631 8.27222V12.9236H16.2773V10.9408C16.2773 9.59222 17.2716 8.47793 18.5631 8.27222Z" fill="#8753D4" fill-opacity="0.6"/>
<path d="M16.2773 13.781H18.5631V16.2267H16.2773V13.781Z" fill="#8753D4" fill-opacity="0.6"/>
<path d="M19.4258 13.781H21.7115V16.2267H19.4258V13.781Z" fill="#8753D4" fill-opacity="0.6"/>
<path d="M19.4258 17.0837H21.7115V19.5352H19.4258V17.0837Z" fill="#8753D4" fill-opacity="0.6"/>
<path d="M16.2773 17.0837H18.5631V19.5352H16.2773V17.0837Z" fill="#8753D4" fill-opacity="0.6"/>
<path d="M17.9978 30.8836V32.0264C17.9978 32.2664 17.8035 32.455 17.5692 32.455C17.3349 32.455 17.1406 32.2664 17.1406 32.0264V30.8836C17.1406 30.6493 17.3349 30.455 17.5692 30.455C17.8035 30.455 17.9978 30.6493 17.9978 30.8836Z" fill="#8753D4"/>
<path d="M31.1562 22.2756H30.5848C30.3482 22.2756 30.1562 22.4676 30.1562 22.7042C30.1562 22.9408 30.3482 23.1328 30.5848 23.1328H31.1562C31.3928 23.1328 31.5848 22.9408 31.5848 22.7042C31.5848 22.4676 31.3928 22.2756 31.1562 22.2756Z" fill="#8753D4"/>
<path d="M7.40625 22.2756H6.83482C6.59825 22.2756 6.40625 22.4676 6.40625 22.7042C6.40625 22.9408 6.59825 23.1328 6.83482 23.1328H7.40625C7.64282 23.1328 7.83482 22.9408 7.83482 22.7042C7.83482 22.4676 7.64282 22.2756 7.40625 22.2756Z" fill="#8753D4"/>
</svg>
