<svg width="38" height="34" viewBox="0 0 38 34" fill="none" xmlns="http://www.w3.org/2000/svg">
<path d="M32.6562 9.7903H24.8005V5.95805C24.8005 2.76835 22.2074 0.182922 19.0254 0.182922H6.22825C3.03856 0.182922 0.453125 2.76835 0.453125 5.95805V18.7628C0.453125 21.7536 2.74022 24.2243 5.73108 24.5073V27.131C5.73108 28.6608 7.52096 29.487 8.68366 28.5002L13.3803 24.5379H17.1666V25.2876C17.1666 27.98 19.3619 30.1754 22.0544 30.1754H26.6975L30.5527 33.4339C31.5853 34.3136 33.1687 33.5793 33.1687 32.2254V30.1524C35.6241 29.8923 37.544 27.8118 37.544 25.2876V14.6781C37.544 11.9856 35.3487 9.7903 32.6562 9.7903ZM13.1737 23.3905C13.036 23.3905 12.906 23.4364 12.7989 23.5206L7.94171 27.6282C7.52097 27.98 6.87846 27.6818 6.87846 27.131V23.9642C6.87846 23.643 6.5419 23.3905 6.22825 23.3905C3.67345 23.3905 1.6005 21.31 1.6005 18.7628V5.95805C1.6005 3.4032 3.67344 1.3303 6.22825 1.3303H19.0254C21.5725 1.3303 23.6531 3.4032 23.6531 5.95805V18.7628C23.6531 21.31 21.5725 23.3905 19.0254 23.3905H13.1737ZM36.3967 25.2876C36.3967 27.3528 34.7215 29.028 32.595 29.028C32.2814 29.028 32.0213 29.2881 32.0213 29.6017V32.2254C32.0213 32.6002 31.5853 32.8067 31.2947 32.5619L27.2712 29.1657C27.1717 29.0739 27.0417 29.028 26.904 29.028H22.0544C19.9892 29.028 18.314 27.3528 18.314 25.2876V24.5379H19.0254C22.2074 24.5379 24.8005 21.9449 24.8005 18.7628V10.9377H32.6562C34.7215 10.9377 36.3967 12.6129 36.3967 14.6781L36.3967 25.2876Z" fill="#8753D4"/>
<path d="M36.3951 14.6782V25.2876C36.3951 27.3529 34.72 29.0281 32.5935 29.0281C32.2799 29.0281 32.0198 29.2881 32.0198 29.6017V32.2255C32.0198 32.6003 31.5838 32.8068 31.2932 32.562L27.2697 29.1658C27.1702 29.074 27.0402 29.0281 26.9025 29.0281H22.0529C19.9877 29.0281 18.3125 27.3529 18.3125 25.2876V24.538H19.0239C22.2059 24.538 24.799 21.9449 24.799 18.7629V10.9377H32.6547C34.72 10.9377 36.3951 12.6129 36.3951 14.6782Z" fill="#8753D4" fill-opacity="0.6"/>
<path d="M12.1979 4.4129C7.82252 4.4129 4.26562 7.97745 4.26562 12.3528C4.26562 16.7281 7.82252 20.285 12.1979 20.285C16.5808 20.285 20.1377 16.7281 20.1377 12.3528C20.1377 7.97745 16.5808 4.4129 12.1979 4.4129ZM12.1979 19.1376C8.45741 19.1376 5.41301 16.0932 5.41301 12.3528C5.41301 8.60468 8.45741 5.56027 12.1979 5.56027C15.946 5.56027 18.9903 8.60468 18.9903 12.3528C18.9903 16.0932 15.946 19.1376 12.1979 19.1376Z" fill="#8753D4"/>
<path d="M12.195 5.56036C8.45456 5.56036 5.41016 8.60477 5.41016 12.3528C5.41016 16.0933 8.45456 19.1377 12.195 19.1377C15.9431 19.1377 18.9875 16.0933 18.9875 12.3528C18.9875 8.60477 15.9431 5.56036 12.195 5.56036ZM16.708 14.9536C16.2797 15.6955 15.2394 15.9709 14.5051 15.5349L13.809 15.1295V15.948C13.809 16.8353 13.0823 17.5543 12.195 17.5543C11.2924 17.5543 10.5887 16.8123 10.5887 15.948V15.1295L9.88496 15.5349C9.12004 15.9862 8.13331 15.7262 7.68964 14.9536C7.24597 14.181 7.51368 13.1943 8.27859 12.7506L8.98235 12.3452L8.27859 11.9398C7.52133 11.5038 7.23832 10.5247 7.68964 9.7445C8.118 9.01016 9.10472 8.71949 9.8773 9.14784L10.5887 9.56092V8.75011C10.5887 7.86278 11.3077 7.14375 12.195 7.14375C13.1129 7.14375 13.809 7.87809 13.809 8.75011V9.56092L14.5127 9.1555C15.2776 8.71183 16.2644 8.97193 16.708 9.7445C17.1746 10.5859 16.838 11.5191 16.119 11.9398L15.4153 12.3452L16.119 12.7506C16.6315 13.0489 16.9222 13.592 16.9222 14.1504C16.9222 14.4258 16.8534 14.7012 16.708 14.9536Z" fill="#8753D4" fill-opacity="0.6"/>
<path d="M16.1183 12.7502L15.4146 12.3448L16.1183 11.9394C16.8373 11.5187 17.1739 10.5855 16.7073 9.74412C16.2636 8.97155 15.2769 8.71145 14.512 9.15512L13.8083 9.56054V8.74973C13.8083 7.87771 13.1122 7.14337 12.1943 7.14337C11.307 7.14337 10.588 7.8624 10.588 8.74973V9.56054L9.87659 9.14746C9.10402 8.71911 8.11729 9.00978 7.68893 9.74412C7.23761 10.5244 7.52063 11.5034 8.27789 11.9394L8.98165 12.3448L8.27789 12.7502C7.51297 13.1939 7.24526 14.1806 7.68893 14.9532C8.1326 15.7258 9.11933 15.9858 9.88425 15.5346L10.588 15.1291V15.9476C10.588 16.812 11.2917 17.5539 12.1943 17.5539C13.0816 17.5539 13.8083 16.8349 13.8083 15.9476V15.1291L14.5043 15.5346C15.2387 15.9706 16.279 15.6952 16.7073 14.9532C16.8526 14.7008 16.9215 14.4254 16.9215 14.1501C16.9215 13.5916 16.6308 13.0486 16.1183 12.7502ZM15.7129 14.3795C15.5906 14.5937 15.3075 14.6779 15.0857 14.5478L13.5176 13.6375C13.1428 13.4234 12.6609 13.6911 12.6609 14.1347V15.9476C12.6609 16.3224 12.1408 16.5443 11.873 16.2688C11.7812 16.1847 11.7353 16.0624 11.7353 15.9476V14.1347C11.7353 13.6987 11.2534 13.4234 10.871 13.6452L9.31055 14.5478C9.08874 14.6702 8.81333 14.6013 8.68331 14.3795C8.55329 14.1577 8.62976 13.8747 8.85157 13.7446L10.4197 12.842C10.8022 12.6202 10.8022 12.0695 10.4197 11.8476L8.85157 10.9451C8.62976 10.815 8.55329 10.5396 8.68331 10.3178C8.80568 10.1036 9.08874 10.0271 9.31055 10.1495L10.871 11.0521C11.2534 11.2663 11.7353 10.9986 11.7353 10.5549V8.74973C11.7353 8.4973 11.9419 8.29075 12.1943 8.29075C12.4697 8.29075 12.6609 8.4973 12.6609 8.74973V10.5549C12.6609 10.9986 13.1428 11.2663 13.5176 11.0521L15.0857 10.1495C15.3075 10.0195 15.5906 10.096 15.7053 10.3102C15.8506 10.5626 15.7512 10.8226 15.5446 10.9451L13.9765 11.8476C13.5941 12.0695 13.5941 12.6202 13.9765 12.842L15.5446 13.7446C15.7665 13.8747 15.843 14.1577 15.7129 14.3795Z" fill="#8753D4"/>
</svg>
