<svg width="38" height="38" viewBox="0 0 38 38" fill="none" xmlns="http://www.w3.org/2000/svg">
<path d="M36.1623 16.3779L33.3771 15.615C33.0141 14.0594 32.3993 12.5853 31.5475 11.2224L32.9993 8.70384C33.2882 8.17792 33.1993 7.54088 32.7845 7.12606L30.866 5.20754C30.4512 4.79273 29.8141 4.70384 29.2808 5.00014L26.7697 6.44458C25.4141 5.59273 23.94 4.98532 22.3771 4.61495L21.6141 1.82977C21.4586 1.25199 20.9326 0.85199 20.34 0.85199H17.6437C17.0512 0.85199 16.5252 1.25199 16.3697 1.82977L15.6141 4.61495C14.0437 4.98532 12.5697 5.59273 11.2141 6.44458L8.6956 5.00014C8.16968 4.70384 7.53264 4.79273 7.11782 5.20754L5.19931 7.12606C4.78449 7.54088 4.6956 8.17791 4.9919 8.71125L6.43634 11.2298C5.58449 12.5927 4.96968 14.0668 4.60671 15.615L1.82153 16.3779C1.24375 16.5335 0.84375 17.0594 0.84375 17.652V20.3483C0.84375 20.9409 1.24375 21.4668 1.82153 21.6224L4.60671 22.3779C4.97708 23.9483 5.58449 25.4298 6.43634 26.7779L4.98449 29.2964C4.6956 29.8224 4.78449 30.4594 5.19931 30.8816L7.11782 32.7927C7.53264 33.2075 8.16967 33.2964 8.70301 33.0001L11.2067 31.5557C12.5771 32.4075 14.0512 33.0224 15.6141 33.3853L16.3697 36.1705C16.5252 36.7483 17.0512 37.1483 17.6437 37.1483H20.34C20.9326 37.1483 21.4586 36.7483 21.6141 36.1779L22.3771 33.3853C23.94 33.0224 25.4215 32.4075 26.7771 31.5705L29.2808 33.0001C29.7993 33.2964 30.4512 33.2075 30.866 32.7927L32.7845 30.8816C33.1993 30.4594 33.2882 29.8075 32.9919 29.289L31.5549 26.7853C32.3993 25.4298 33.0141 23.9483 33.3771 22.3779L36.1623 21.6224C36.74 21.4668 37.14 20.9409 37.14 20.3483V17.652C37.14 17.0594 36.74 16.5335 36.1623 16.3779ZM36.3993 20.3483C36.3993 20.6075 36.2215 20.8372 35.9697 20.9112L32.9697 21.7187C32.8289 21.7557 32.7326 21.8668 32.703 22.0001C32.3474 23.6446 31.7104 25.1779 30.8141 26.5705C30.74 26.689 30.7326 26.8372 30.8067 26.9557L32.3549 29.6594C32.4808 29.889 32.4437 30.1705 32.2586 30.3557L30.3475 32.2668C30.1549 32.452 29.8808 32.489 29.6512 32.3631L26.9475 30.8149C26.8289 30.7483 26.6808 30.7483 26.5623 30.8224C25.1697 31.7261 23.6289 32.3557 21.9993 32.7112C21.866 32.7409 21.7549 32.8446 21.7178 32.9779L20.8956 35.9779C20.8289 36.2298 20.5993 36.4075 20.34 36.4075H17.6437C17.3845 36.4075 17.1549 36.2298 17.0882 35.9779L16.2734 32.9779C16.2363 32.8446 16.1252 32.7409 15.9919 32.7112C14.3623 32.3557 12.8215 31.7187 11.4215 30.8149C11.3623 30.7779 11.2882 30.7557 11.2215 30.7557C11.1549 30.7557 11.0882 30.7705 11.0363 30.8075L8.34005 32.3557C8.10301 32.489 7.82153 32.452 7.63634 32.2668L5.72523 30.3557C5.54005 30.1705 5.50301 29.889 5.63634 29.6594L7.18449 26.9483C7.25856 26.8298 7.25116 26.6816 7.17708 26.5631C6.27338 25.1779 5.63634 23.6372 5.28079 22.0001C5.25116 21.8668 5.15486 21.7557 5.02153 21.7187L2.01412 20.9112C1.76227 20.8372 1.58449 20.6075 1.58449 20.3483V17.652C1.58449 17.3927 1.76227 17.1631 2.01412 17.0964L5.02153 16.2742C5.15486 16.2372 5.25116 16.1261 5.28079 15.9927C5.63634 14.3779 6.27338 12.8446 7.17708 11.4372C7.25116 11.3187 7.25856 11.1705 7.18449 11.052L5.63634 8.34829C5.50301 8.11125 5.54005 7.82977 5.72523 7.64458L7.63634 5.73347C7.82153 5.54829 8.10301 5.51866 8.33264 5.64458L11.0437 7.20014C11.1623 7.2668 11.3104 7.2594 11.4289 7.18532C12.8215 6.28162 14.3549 5.64458 15.9919 5.28903C16.1252 5.2594 16.2363 5.1631 16.2734 5.02977L17.0882 2.02236C17.1549 1.77051 17.3845 1.59273 17.6437 1.59273H20.34C20.5993 1.59273 20.8289 1.77051 20.8956 2.02236L21.7178 5.02977C21.7549 5.1631 21.866 5.2594 21.9993 5.28903C23.6363 5.64458 25.1697 6.28162 26.5549 7.18532C26.6734 7.2594 26.8215 7.2668 26.94 7.20014L29.6437 5.64458C29.8808 5.51125 30.1623 5.55569 30.3475 5.73347L32.2586 7.64458C32.4437 7.82977 32.4808 8.11125 32.3549 8.34088L30.7993 11.0446C30.7252 11.1631 30.7326 11.3112 30.8067 11.4298C31.7104 12.8372 32.3549 14.3705 32.703 15.9927C32.7326 16.1261 32.8289 16.2372 32.9623 16.2742L35.9697 17.0964C36.2215 17.1631 36.3993 17.3927 36.3993 17.652V20.3483Z" fill="#8753D4"/>
<path d="M35.975 17.0964L32.9676 16.2742C32.8343 16.2372 32.738 16.126 32.7084 15.9927C32.3602 14.3705 31.7158 12.8372 30.8121 11.4298C30.738 11.3112 30.7306 11.1631 30.8047 11.0446L32.3602 8.34086C32.4861 8.11123 32.4491 7.82975 32.2639 7.64456L30.3528 5.73345C30.1676 5.55568 29.8861 5.51123 29.6491 5.64456L26.9454 7.20012C26.8269 7.26679 26.6787 7.25938 26.5602 7.18531C25.175 6.2816 23.6417 5.64456 22.0047 5.28901C21.8713 5.25938 21.7602 5.16308 21.7232 5.02975L20.901 2.02234C20.8343 1.77049 20.6047 1.59271 20.3454 1.59271H17.6491C17.3898 1.59271 17.1602 1.77049 17.0935 2.02234L16.2787 5.02975C16.2417 5.16308 16.1306 5.25938 15.9973 5.28901C14.3602 5.64456 12.8269 6.2816 11.4343 7.18531C11.3158 7.25938 11.1676 7.26679 11.0491 7.20012L8.33799 5.64456C8.10836 5.51864 7.82688 5.54827 7.6417 5.73345L5.73058 7.64456C5.5454 7.82975 5.50836 8.11123 5.6417 8.34827L7.18984 11.052C7.26392 11.1705 7.25651 11.3186 7.18244 11.4372C6.27873 12.8446 5.6417 14.3779 5.28614 15.9927C5.25651 16.126 5.16021 16.2372 5.02688 16.2742L2.01947 17.0964C1.76762 17.1631 1.58984 17.3927 1.58984 17.652V20.3483C1.58984 20.6075 1.76762 20.8372 2.01947 20.9112L5.02688 21.7186C5.16021 21.7557 5.25651 21.8668 5.28614 22.0001C5.6417 23.6372 6.27873 25.1779 7.18244 26.5631C7.25651 26.6816 7.26392 26.8298 7.18984 26.9483L5.6417 29.6594C5.50836 29.889 5.5454 30.1705 5.73058 30.3557L7.6417 32.2668C7.82688 32.452 8.10836 32.489 8.3454 32.3557L11.0417 30.8075C11.0935 30.7705 11.1602 30.7557 11.2269 30.7557C11.2935 30.7557 11.3676 30.7779 11.4269 30.8149C12.8269 31.7186 14.3676 32.3557 15.9973 32.7112C16.1306 32.7409 16.2417 32.8446 16.2787 32.9779L17.0935 35.9779C17.1602 36.2298 17.3898 36.4075 17.6491 36.4075H20.3454C20.6047 36.4075 20.8343 36.2298 20.901 35.9779L21.7232 32.9779C21.7602 32.8446 21.8713 32.7409 22.0047 32.7112C23.6343 32.3557 25.175 31.726 26.5676 30.8223C26.6861 30.7483 26.8343 30.7483 26.9528 30.8149L29.6565 32.3631C29.8861 32.489 30.1602 32.452 30.3528 32.2668L32.2639 30.3557C32.4491 30.1705 32.4861 29.889 32.3602 29.6594L30.8121 26.9557C30.738 26.8372 30.7454 26.689 30.8195 26.5705C31.7158 25.1779 32.3528 23.6446 32.7084 22.0001C32.738 21.8668 32.8343 21.7557 32.975 21.7186L35.975 20.9112C36.2269 20.8372 36.4047 20.6075 36.4047 20.3483V17.652C36.4047 17.3927 36.2269 17.1631 35.975 17.0964ZM18.9973 28.9779C13.4935 28.9779 9.01947 24.5038 9.01947 19.0001C9.01947 13.4964 13.4935 9.02234 18.9973 9.02234C24.501 9.02234 28.975 13.4964 28.975 19.0001C28.975 24.5038 24.501 28.9779 18.9973 28.9779Z" fill="#8753D4" fill-opacity="0.6"/>
<path d="M18.9934 9.02246C13.4897 9.02246 9.01562 13.4965 9.01562 19.0002C9.01562 24.5039 13.4897 28.978 18.9934 28.978C24.4971 28.978 28.9712 24.5039 28.9712 19.0002C28.9712 13.4965 24.4971 9.02246 18.9934 9.02246ZM18.9934 28.2373C13.8971 28.2373 9.75637 24.0965 9.75637 19.0002C9.75637 13.9039 13.8971 9.7632 18.9934 9.7632C24.0897 9.7632 28.2304 13.9039 28.2304 19.0002C28.2304 24.0965 24.0897 28.2373 18.9934 28.2373Z" fill="#8753D4"/>
<path d="M18.9883 12.2149C15.2476 12.2149 12.2031 15.2593 12.2031 19.0001C12.2031 22.7408 15.2476 25.7853 18.9883 25.7853C22.7291 25.7853 25.7735 22.7408 25.7735 19.0001C25.7735 15.2593 22.7291 12.2149 18.9883 12.2149ZM18.9883 25.0445C15.655 25.0445 12.9439 22.3334 12.9439 19.0001C12.9439 15.6668 15.655 12.9556 18.9883 12.9556C22.3216 12.9556 25.0328 15.6668 25.0328 19.0001C25.0328 22.3334 22.3216 25.0445 18.9883 25.0445Z" fill="#8753D4"/>
<path d="M18.9937 12.956C15.6603 12.956 12.9492 15.6671 12.9492 19.0004C12.9492 22.3338 15.6603 25.0449 18.9937 25.0449C22.327 25.0449 25.0381 22.3338 25.0381 19.0004C25.0381 15.6671 22.327 12.956 18.9937 12.956ZM18.9937 18.6301C20.0159 18.6301 20.8455 19.4597 20.8455 20.4819C20.8455 21.3782 20.2085 22.119 19.364 22.2967V22.756C19.364 22.956 19.2011 23.1264 18.9937 23.1264C18.7863 23.1264 18.6233 22.956 18.6233 22.756V22.2967C17.7788 22.119 17.1418 21.3782 17.1418 20.4819C17.1418 20.2745 17.3122 20.1115 17.5122 20.1115C17.7196 20.1115 17.8826 20.2745 17.8826 20.4819C17.8826 21.0967 18.3788 21.593 18.9937 21.593C19.6085 21.593 20.1048 21.0967 20.1048 20.4819C20.1048 19.8671 19.6085 19.3708 18.9937 19.3708C17.9714 19.3708 17.1418 18.5412 17.1418 17.519C17.1418 16.6301 17.7788 15.8819 18.6233 15.7115V15.2523C18.6233 15.0449 18.7863 14.8819 18.9937 14.8819C19.2011 14.8819 19.364 15.0449 19.364 15.2523V15.7115C20.2085 15.8819 20.8455 16.6301 20.8455 17.519C20.8455 17.7264 20.6751 17.8893 20.4751 17.8893C20.2677 17.8893 20.1048 17.7264 20.1048 17.519C20.1048 16.9115 19.6085 16.4153 18.9937 16.4153C18.3788 16.4153 17.8826 16.9115 17.8826 17.519C17.8826 18.1338 18.3788 18.6301 18.9937 18.6301Z" fill="#8753D4" fill-opacity="0.6"/>
<path d="M20.8443 20.4817C20.8443 21.3779 20.2073 22.1187 19.3628 22.2965V22.7557C19.3628 22.9557 19.1999 23.1261 18.9925 23.1261C18.7851 23.1261 18.6221 22.9557 18.6221 22.7557V22.2965C17.7777 22.1187 17.1406 21.3779 17.1406 20.4817C17.1406 20.2742 17.311 20.1113 17.511 20.1113C17.7184 20.1113 17.8814 20.2742 17.8814 20.4817C17.8814 21.0965 18.3777 21.5928 18.9925 21.5928C19.6073 21.5928 20.1036 21.0965 20.1036 20.4817C20.1036 19.8668 19.6073 19.3705 18.9925 19.3705C17.9703 19.3705 17.1406 18.5409 17.1406 17.5187C17.1406 16.6298 17.7777 15.8817 18.6221 15.7113V15.252C18.6221 15.0446 18.7851 14.8817 18.9925 14.8817C19.1999 14.8817 19.3628 15.0446 19.3628 15.252V15.7113C20.2073 15.8817 20.8443 16.6298 20.8443 17.5187C20.8443 17.7261 20.674 17.8891 20.474 17.8891C20.2666 17.8891 20.1036 17.7261 20.1036 17.5187C20.1036 16.9113 19.6073 16.415 18.9925 16.415C18.3777 16.415 17.8814 16.9113 17.8814 17.5187C17.8814 18.1335 18.3777 18.6298 18.9925 18.6298C20.0147 18.6298 20.8443 19.4594 20.8443 20.4817Z" fill="white"/>
</svg>
