<svg width="46" height="46" viewBox="0 0 46 46" fill="none" xmlns="http://www.w3.org/2000/svg">
<path d="M23.0025 4.81494C21.2154 4.81494 19.7617 6.26864 19.7617 8.05568C19.7617 9.84272 21.2154 11.2964 23.0025 11.2964C24.7895 11.2964 26.2432 9.84272 26.2432 8.05568C26.2432 6.26864 24.7895 4.81494 23.0025 4.81494ZM23.0025 10.3705C21.7247 10.3705 20.6876 9.33346 20.6876 8.05568C20.6876 6.78716 21.7247 5.74087 23.0025 5.74087C24.2802 5.74087 25.3173 6.78716 25.3173 8.05568C25.3173 9.33346 24.2802 10.3705 23.0025 10.3705Z" fill="#8753D4"/>
<path d="M10.5923 30.9167C8.80527 30.9167 7.35156 32.3705 7.35156 34.1575C7.35156 35.9445 8.80527 37.3982 10.5923 37.3982C12.3793 37.3982 13.833 35.9445 13.833 34.1575C13.833 32.3705 12.3793 30.9167 10.5923 30.9167ZM10.5923 36.4723C9.31453 36.4723 8.27749 35.4353 8.27749 34.1575C8.27749 32.8797 9.31453 31.8427 10.5923 31.8427C11.8608 31.8427 12.9071 32.8797 12.9071 34.1575C12.9071 35.4353 11.8608 36.4723 10.5923 36.4723Z" fill="#8753D4"/>
<path d="M35.8791 26.4446V24.7409C35.8791 23.0557 34.5179 21.6946 32.8328 21.6946H23.4716V19.5649C28.6939 19.3149 32.6291 14.9909 32.6291 9.95383C32.6291 4.63902 28.3142 0.314941 22.9994 0.314941C17.6939 0.314941 13.3698 4.63902 13.3698 9.95383C13.3698 15.1668 17.4624 19.3149 22.5365 19.5649V21.6946H13.1661C11.4902 21.6946 10.1291 23.0557 10.1291 24.7409V26.4446C5.0272 26.6853 0.953125 30.8983 0.953125 36.0557C0.953125 41.4168 5.31424 45.6853 10.5828 45.6853C15.9809 45.6853 20.2216 41.2964 20.2216 36.0557C20.2216 30.8983 16.1476 26.6853 11.055 26.4446V24.7409C11.055 23.5742 11.9994 22.6205 13.1661 22.6205H32.8328C33.9994 22.6205 34.9531 23.5742 34.9531 24.7409V26.4446C29.8605 26.6853 25.7865 30.8983 25.7865 36.0557C25.7865 41.3983 30.1198 45.6853 35.4161 45.6853C40.6846 45.6853 45.0457 41.4075 45.0457 36.0557C45.0457 30.8983 40.9716 26.6853 35.8791 26.4446ZM10.5828 44.7594C8.24942 44.7594 6.00868 43.8057 4.36979 42.139C4.51794 40.639 5.75868 39.4909 7.29572 39.4909H13.8883C15.4068 39.4909 16.6476 40.639 16.805 42.1298C15.1568 43.8242 12.9531 44.7594 10.5828 44.7594ZM19.2957 36.0557C19.2957 37.9446 18.6753 39.7594 17.555 41.2594C17.055 39.6946 15.6105 38.5649 13.8883 38.5649H7.29572C5.55498 38.5649 4.11053 39.6946 3.61053 41.2594C2.49942 39.7686 1.87905 37.9446 1.87905 36.0557C1.87905 31.2501 5.78646 27.3427 10.5828 27.3427C15.3883 27.3427 19.2957 31.2501 19.2957 36.0557ZM16.0272 15.1575C14.9068 13.6668 14.2957 11.852 14.2957 9.95383C14.2957 5.14827 18.2031 1.24087 22.9994 1.24087C27.7957 1.24087 31.7031 5.14827 31.7031 9.95383C31.7031 11.8427 31.092 13.6575 29.9716 15.1575C29.4716 13.5927 28.0272 12.4631 26.2957 12.4631H19.7031C17.9716 12.4631 16.5272 13.5927 16.0272 15.1575ZM16.7865 16.0372C16.9346 14.5372 18.1753 13.389 19.7031 13.389H26.2957C27.8235 13.389 29.0642 14.5372 29.2216 16.0279C27.5642 17.7223 25.3698 18.6575 22.9994 18.6575C20.6661 18.6575 18.4161 17.7038 16.7865 16.0372ZM35.4161 44.7594C33.0828 44.7594 30.8328 43.8057 29.2031 42.139C29.3513 40.639 30.592 39.4909 32.1198 39.4909H38.7124C40.2402 39.4909 41.4809 40.639 41.6291 42.1298C39.9809 43.8242 37.7865 44.7594 35.4161 44.7594ZM38.7124 38.5649H32.1198C30.3883 38.5649 28.9346 39.6946 28.4439 41.2594C27.3235 39.7686 26.7124 37.9538 26.7124 36.0557C26.7124 31.2501 30.6105 27.3427 35.4161 27.3427C40.2124 27.3427 44.1198 31.2501 44.1198 36.0557C44.1198 37.9446 43.5087 39.7594 42.3883 41.2594C41.8883 39.6946 40.4346 38.5649 38.7124 38.5649Z" fill="#8753D4"/>
<path d="M41.6369 42.1296C39.9887 43.8241 37.7943 44.7592 35.4239 44.7592C33.0906 44.7592 30.8406 43.8055 29.2109 42.1389C29.3591 40.6389 30.5998 39.4907 32.1276 39.4907H38.7202C40.248 39.4907 41.4887 40.6389 41.6369 42.1296Z" fill="#8753D4" fill-opacity="0.6"/>
<path d="M16.8102 42.1296C15.162 43.8241 12.9583 44.7592 10.588 44.7592C8.25463 44.7592 6.01389 43.8055 4.375 42.1389C4.52315 40.6389 5.76389 39.4907 7.30093 39.4907H13.8935C15.412 39.4907 16.6528 40.6389 16.8102 42.1296Z" fill="#8753D4" fill-opacity="0.6"/>
<path d="M10.5961 36.4722C11.8745 36.4722 12.9109 35.4358 12.9109 34.1574C12.9109 32.879 11.8745 31.8426 10.5961 31.8426C9.31763 31.8426 8.28125 32.879 8.28125 34.1574C8.28125 35.4358 9.31763 36.4722 10.5961 36.4722Z" fill="#8753D4" fill-opacity="0.6"/>
<path d="M23.0101 10.3704C24.2886 10.3704 25.3249 9.33397 25.3249 8.05554C25.3249 6.7771 24.2886 5.74072 23.0101 5.74072C21.7317 5.74072 20.6953 6.7771 20.6953 8.05554C20.6953 9.33397 21.7317 10.3704 23.0101 10.3704Z" fill="#8753D4" fill-opacity="0.6"/>
<path d="M29.2242 16.0278C27.5668 17.7222 25.3724 18.6574 23.002 18.6574C20.6687 18.6574 18.4187 17.7037 16.7891 16.0371C16.9372 14.5371 18.178 13.3889 19.7057 13.3889H26.2983C27.8261 13.3889 29.0668 14.5371 29.2242 16.0278Z" fill="#8753D4" fill-opacity="0.6"/>
<path d="M35.4126 30.9167C33.6256 30.9167 32.1719 32.3705 32.1719 34.1575C32.1719 35.9445 33.6256 37.3982 35.4126 37.3982C37.1997 37.3982 38.6534 35.9445 38.6534 34.1575C38.6534 32.3705 37.1997 30.9167 35.4126 30.9167ZM35.4126 36.4723C34.1348 36.4723 33.0978 35.4353 33.0978 34.1575C33.0978 32.8797 34.1348 31.8427 35.4126 31.8427C36.6904 31.8427 37.7274 32.8797 37.7274 34.1575C37.7274 35.4353 36.6904 36.4723 35.4126 36.4723Z" fill="#8753D4"/>
<path d="M35.4164 36.4723C36.6948 36.4723 37.7312 35.436 37.7312 34.1575C37.7312 32.8791 36.6948 31.8427 35.4164 31.8427C34.1379 31.8427 33.1016 32.8791 33.1016 34.1575C33.1016 35.436 34.1379 36.4723 35.4164 36.4723Z" fill="#8753D4" fill-opacity="0.6"/>
</svg>
