<svg width="40" height="36" viewBox="0 0 40 36" fill="none" xmlns="http://www.w3.org/2000/svg">
<path d="M27.6626 0.340332C22.1306 0.340332 17.625 4.83991 17.625 10.3719C17.625 15.9039 22.1306 20.4035 27.6626 20.4035C33.1946 20.4035 37.6942 15.9039 37.6942 10.3719C37.6942 4.83991 33.1946 0.340332 27.6626 0.340332ZM27.6626 19.21C22.787 19.21 18.8185 15.2475 18.8185 10.3719C18.8185 5.49638 22.787 1.53386 27.6626 1.53386C32.5381 1.53386 36.5006 5.49638 36.5006 10.3719C36.5006 15.2475 32.5381 19.21 27.6626 19.21Z" fill="#8753D4"/>
<path d="M36.4985 10.3719C36.4985 15.2474 32.536 19.2099 27.6604 19.2099C22.7849 19.2099 18.8164 15.2474 18.8164 10.3719C18.8164 5.49633 22.7849 1.53381 27.6604 1.53381C32.536 1.53381 36.4985 5.49633 36.4985 10.3719Z" fill="#8753D4" fill-opacity="0.6"/>
<path d="M27.6551 13.1271C27.06 13.1271 26.5763 12.6434 26.5763 12.0484C26.5763 11.7185 26.3094 11.4516 25.9796 11.4516C25.6497 11.4516 25.3828 11.7185 25.3828 12.0484C25.3828 13.0935 26.0959 13.967 27.0583 14.231V14.8247C27.0583 15.1546 27.3252 15.4215 27.6551 15.4215C27.9849 15.4215 28.2518 15.1546 28.2518 14.8247V14.2314C29.2168 13.9678 29.932 13.0939 29.932 12.0484C29.932 10.7954 28.9104 9.77556 27.6551 9.77556C27.06 9.77556 26.5763 9.29186 26.5763 8.69684C26.5763 8.10183 27.06 7.61812 27.6551 7.61812C28.2524 7.61812 28.7384 8.10183 28.7384 8.69684C28.7384 9.0267 29.0054 9.29361 29.3352 9.29361C29.6651 9.29361 29.932 9.0267 29.932 8.69684C29.932 7.65131 29.2168 6.77747 28.2518 6.51387V5.92049C28.2518 5.59064 27.9849 5.32373 27.6551 5.32373C27.3252 5.32373 27.0583 5.59064 27.0583 5.92049V6.5142C26.0959 6.77824 25.3828 7.65171 25.3828 8.69684C25.3828 9.94982 26.4021 10.9691 27.6551 10.9691C28.2524 10.9691 28.7384 11.4534 28.7384 12.0484C28.7384 12.6434 28.2524 13.1271 27.6551 13.1271Z" fill="white"/>
<path d="M39.4306 23.447C38.7025 21.8059 36.7929 21.1256 35.2234 21.8596L27.734 25.3447C27.1074 23.2143 25.1262 21.6865 22.8405 21.6865H19.994C19.7911 21.6865 19.5941 21.603 19.445 21.4598L17.404 19.4427C16.6879 18.7385 15.7331 18.3506 14.7246 18.3506H8.97775V17.909C8.97775 16.996 8.23179 16.256 7.3247 16.256H1.95383C1.0408 16.256 0.300781 16.996 0.300781 17.909V30.2739C0.300781 31.187 1.0408 31.927 1.95383 31.927H7.3247C8.23178 31.927 8.97774 31.187 8.97774 30.2739V30.083L17.959 34.7556C20.3401 35.9969 23.1926 35.9731 25.5857 34.6005L38.1117 27.4274C39.4306 26.6695 40.081 25.0105 39.4306 23.447ZM7.78421 30.2739C7.78421 30.5306 7.57532 30.7335 7.3247 30.7335H1.95383C1.7032 30.7335 1.49431 30.5306 1.49431 30.2739V17.909C1.49431 17.6524 1.70319 17.4495 1.95383 17.4495H7.3247C7.57532 17.4495 7.78421 17.6524 7.78421 17.909V30.2739ZM37.515 26.395L24.9949 33.5681C22.9897 34.7139 20.5609 34.7616 18.508 33.6934L8.97774 28.7343V19.5442H14.7246C15.4228 19.5442 16.0733 19.8127 16.5685 20.2961L18.6095 22.3131C18.9855 22.6772 19.4808 22.8801 19.994 22.8801H22.8405C24.9412 22.8801 26.7434 24.5749 26.7434 26.7829C26.7434 27.0753 26.5047 27.2901 26.2421 27.2901H21.1219C20.7936 27.2901 20.5251 27.5527 20.5251 27.8869C20.5251 28.2151 20.7936 28.4837 21.1219 28.4837H26.2421C27.191 28.4837 27.9369 27.7138 27.9369 26.7829V26.5681L35.7306 22.9397C36.7451 22.4743 37.9088 22.9517 38.3325 23.9184C38.7323 24.8494 38.3624 25.8997 37.515 26.395Z" fill="#8753D4"/>
<path d="M7.78991 17.9087V30.2737C7.78991 30.5303 7.58102 30.7332 7.33039 30.7332H1.95952C1.70889 30.7332 1.5 30.5303 1.5 30.2737V17.9087C1.5 17.6521 1.70889 17.4492 1.95952 17.4492H7.33039C7.58102 17.4492 7.78991 17.6521 7.78991 17.9087Z" fill="#8753D4" fill-opacity="0.6"/>
<path d="M33.2262 12.2731C34.2758 12.2731 35.1296 11.4217 35.1296 10.375C35.1296 9.32545 34.2758 8.47168 33.2262 8.47168C32.1796 8.47168 31.3281 9.32545 31.3281 10.375C31.3281 11.4217 32.1796 12.2731 33.2262 12.2731ZM33.2262 9.66521C33.6179 9.66521 33.9361 9.9834 33.9361 10.375C33.9361 10.7637 33.6179 11.0796 33.2262 11.0796C32.8375 11.0796 32.5217 10.7637 32.5217 10.375C32.5217 9.9834 32.8375 9.66521 33.2262 9.66521Z" fill="white"/>
<path d="M24.3321 10.3751C24.3321 9.32551 23.4784 8.47174 22.4288 8.47174C21.3827 8.47174 20.5312 9.32551 20.5312 10.3751C20.5312 11.4218 21.3827 12.2732 22.4288 12.2732C23.4783 12.2732 24.3321 11.4218 24.3321 10.3751ZM21.7248 10.3751C21.7248 9.98346 22.0406 9.66527 22.4288 9.66527C22.8204 9.66527 23.1386 9.98346 23.1386 10.3751C23.1386 10.7638 22.8204 11.0797 22.4288 11.0797C22.0406 11.0797 21.7248 10.7638 21.7248 10.3751Z" fill="white"/>
</svg>
