<svg width="36" height="46" viewBox="0 0 36 46" fill="none" xmlns="http://www.w3.org/2000/svg">
<path d="M35.2467 9.53046C34.9509 9.53046 34.7109 9.77041 34.7109 10.0662V19.0083C34.7109 19.3041 34.9509 19.5441 35.2467 19.5441C35.5424 19.5441 35.7824 19.3041 35.7824 19.0083V10.0662C35.7824 9.77041 35.5424 9.53046 35.2467 9.53046Z" fill="#8753D4"/>
<path d="M35.2467 6.20071C34.9509 6.20071 34.7109 6.44067 34.7109 6.73643V7.35515C34.7109 7.65091 34.9509 7.89086 35.2467 7.89086C35.5424 7.89086 35.7824 7.65091 35.7824 7.35515V6.73643C35.7824 6.44067 35.5424 6.20071 35.2467 6.20071Z" fill="#8753D4"/>
<path d="M0.715402 29.8091C1.01116 29.8091 1.25112 29.5692 1.25112 29.2734V28.9965C1.25112 28.7007 1.01116 28.4608 0.715402 28.4608C0.419645 28.4608 0.179688 28.7007 0.179688 28.9965V29.2734C0.179688 29.5692 0.419638 29.8091 0.715402 29.8091Z" fill="#8753D4"/>
<path d="M0.179688 38.4531C0.179688 38.7489 0.419645 38.9888 0.715402 38.9888C1.01116 38.9888 1.25112 38.7489 1.25112 38.4531V31.0256C1.25112 30.7299 1.01116 30.4899 0.715402 30.4899C0.419645 30.4899 0.179688 30.7299 0.179688 31.0256V38.4531Z" fill="#8753D4"/>
<path d="M30.5259 0.142853H5.43304C4.07589 0.142853 2.96875 1.24999 2.96875 2.60715V43.3928C2.96875 44.75 4.07589 45.8571 5.43304 45.8571H30.5259C31.883 45.8571 32.9902 44.75 32.9902 43.3928V2.60715C32.9902 1.24999 31.883 0.142853 30.5259 0.142853ZM31.9188 43.3928C31.9188 44.1643 31.2973 44.7857 30.5259 44.7857H5.43305C4.66876 44.7857 4.04019 44.1643 4.04019 43.3928V2.60715C4.04019 1.8357 4.66876 1.21428 5.43305 1.21428H30.5259C31.2973 1.21428 31.9188 1.83571 31.9188 2.60715V43.3928Z" fill="#8753D4"/>
<path d="M28.9681 6.07141H6.99665C6.69667 6.07141 6.46094 6.31429 6.46094 6.60713V36.5429C6.46094 36.8357 6.69667 37.0786 6.99665 37.0786H28.9681C29.2609 37.0786 29.5038 36.8357 29.5038 36.5429V6.60713C29.5038 6.31428 29.2609 6.07141 28.9681 6.07141ZM28.4324 36.0071H7.53237V7.14284H28.4324V36.0071Z" fill="#8753D4"/>
<path d="M7.53906 7.14285V36.0072H28.4391V7.14285H7.53906ZM11.4748 27.9V19.2715H10.9533C10.5819 19.2715 10.2533 19.05 10.1248 18.7C9.99621 18.35 10.0891 17.9643 10.3748 17.7143L17.4034 11.6C17.739 11.3143 18.2391 11.3143 18.5676 11.6L25.6033 17.7143C25.8819 17.9643 25.9819 18.35 25.8462 18.7C25.7177 19.05 25.3891 19.2715 25.0176 19.2715H24.4962V27.9C24.4962 28.3786 24.1105 28.7714 23.6248 28.7714H12.3533C11.8676 28.7714 11.4748 28.3786 11.4748 27.9ZM20.2819 34.2857H19.839C19.5391 34.2857 19.3033 34.0429 19.3033 33.75C19.3033 33.4572 19.5391 33.2143 19.839 33.2143H20.2819C20.5748 33.2143 20.8176 33.4572 20.8176 33.75C20.8176 34.0429 20.5748 34.2857 20.2819 34.2857ZM26.1819 34.2857H22.0748C21.7819 34.2857 21.539 34.0429 21.539 33.75C21.539 33.4572 21.7819 33.2143 22.0748 33.2143H26.1819C26.4748 33.2143 26.7176 33.4572 26.7176 33.75C26.7176 34.0429 26.4748 34.2857 26.1819 34.2857Z" fill="#8753D4" fill-opacity="0.6"/>
<path d="M20.819 33.75C20.819 34.0429 20.5761 34.2857 20.2833 34.2857H19.8404C19.5404 34.2857 19.3047 34.0429 19.3047 33.75C19.3047 33.4572 19.5404 33.2143 19.8404 33.2143H20.2833C20.5761 33.2143 20.819 33.4572 20.819 33.75Z" fill="#8753D4"/>
<path d="M26.7176 33.75C26.7176 34.0429 26.4748 34.2857 26.1819 34.2857H22.0748C21.7819 34.2857 21.5391 34.0429 21.5391 33.75C21.5391 33.4572 21.7819 33.2143 22.0748 33.2143H26.1819C26.4748 33.2143 26.7176 33.4572 26.7176 33.75Z" fill="#8753D4"/>
<path d="M15.3795 4.17888H15.7471C16.0428 4.17888 16.2828 3.93892 16.2828 3.64317C16.2828 3.34741 16.0428 3.10745 15.7471 3.10745H15.3795C15.0837 3.10745 14.8438 3.34741 14.8438 3.64317C14.8438 3.93892 15.0837 4.17888 15.3795 4.17888Z" fill="#8753D4"/>
<path d="M17.5123 4.17888H20.5864C20.8821 4.17888 21.1221 3.93892 21.1221 3.64317C21.1221 3.34741 20.8821 3.10745 20.5864 3.10745H17.5123C17.2165 3.10745 16.9766 3.34741 16.9766 3.64317C16.9766 3.93892 17.2165 4.17888 17.5123 4.17888Z" fill="#8753D4"/>
<path d="M17.9766 38.9214C16.8766 38.9214 15.9766 39.8214 15.9766 40.9286C15.9766 42.0428 16.8766 42.9429 17.9766 42.9429C19.0908 42.9429 19.9908 42.0428 19.9908 40.9286C19.9908 39.8214 19.0908 38.9214 17.9766 38.9214ZM17.9766 41.8714C17.4623 41.8714 17.048 41.45 17.048 40.9286C17.048 40.4143 17.4623 39.9928 17.9766 39.9928C18.498 39.9928 18.9194 40.4143 18.9194 40.9286C18.9194 41.45 18.498 41.8714 17.9766 41.8714Z" fill="#8753D4"/>
<path d="M18.9261 40.9285C18.9261 41.45 18.5047 41.8714 17.9833 41.8714C17.469 41.8714 17.0547 41.45 17.0547 40.9285C17.0547 40.4143 17.469 39.9928 17.9833 39.9928C18.5047 39.9928 18.9261 40.4143 18.9261 40.9285Z" fill="#8753D4" fill-opacity="0.6"/>
<path d="M25.6056 17.7143L18.5699 11.6C18.2413 11.3143 17.7413 11.3143 17.4056 11.6L10.377 17.7143C10.0913 17.9643 9.99845 18.35 10.127 18.7C10.2556 19.05 10.5842 19.2714 10.9556 19.2714H11.477V27.9C11.477 28.3786 11.8699 28.7714 12.3556 28.7714H23.627C24.1127 28.7714 24.4984 28.3786 24.4984 27.9V19.2714H25.0199C25.3913 19.2714 25.7199 19.05 25.8484 18.7C25.9842 18.35 25.8842 17.9643 25.6056 17.7143ZM19.5628 27.7H16.4699V24.0071C16.4699 23.15 17.1627 22.4571 18.0199 22.4571C18.8699 22.4571 19.5627 23.15 19.5627 24.0071L19.5628 27.7ZM23.427 27.7H20.6342V24.0071C20.6342 22.5643 19.4627 21.3857 18.0199 21.3857C16.5699 21.3857 15.3985 22.5643 15.3985 24.0071V27.7H12.5485V19.2714H23.427V27.7ZM11.4484 18.2L17.9913 12.5143L24.5341 18.2H11.4484Z" fill="#8753D4"/>
</svg>
