<svg width="48" height="48" viewBox="0 0 48 48" fill="none" xmlns="http://www.w3.org/2000/svg">
<path d="M40.1055 10.6322C40.1055 10.9279 40.3455 11.1679 40.6412 11.1679C40.9369 11.1679 41.1769 10.9279 41.1769 10.6322V7.48078C41.1769 7.18507 40.9369 6.94507 40.6412 6.94507C40.3455 6.94507 40.1055 7.18507 40.1055 7.48078V10.6322Z" fill="#8753D4"/>
<path d="M40.6412 5.2443C40.9369 5.2443 41.1769 5.0043 41.1769 4.70859V4.10359C41.1769 3.80787 40.9369 3.56787 40.6412 3.56787C40.3455 3.56787 40.1055 3.80787 40.1055 4.10359V4.70859C40.1055 5.0043 40.3448 5.2443 40.6412 5.2443Z" fill="#8753D4"/>
<path d="M1.12946 18.7886C1.42518 18.7886 1.66518 18.5486 1.66518 18.2529V17.5471C1.66518 17.2514 1.42518 17.0114 1.12946 17.0114C0.83375 17.0114 0.59375 17.2514 0.59375 17.5471V18.2529C0.59375 18.5486 0.83375 18.7886 1.12946 18.7886Z" fill="#8753D4"/>
<path d="M1.12946 33.525C1.42518 33.525 1.66518 33.285 1.66518 32.9893V20.8829C1.66518 20.5871 1.42518 20.3471 1.12946 20.3471C0.83375 20.3471 0.59375 20.5871 0.59375 20.8829V32.9893C0.59375 33.285 0.83375 33.525 1.12946 33.525Z" fill="#8753D4"/>
<path d="M15.9089 10.0928H9.80893C9.05179 10.0928 8.4375 10.7071 8.4375 11.4642V17.5571C8.4375 18.3142 9.05179 18.9356 9.80893 18.9356H15.9089C16.6661 18.9356 17.2804 18.3142 17.2804 17.5571V11.4642C17.2804 10.7071 16.6661 10.0928 15.9089 10.0928ZM16.2089 17.5571C16.2089 17.7285 16.0732 17.8642 15.9089 17.8642H9.80893C9.64464 17.8642 9.50893 17.7285 9.50893 17.5571V11.4642C9.50893 11.2928 9.64464 11.1642 9.80893 11.1642H15.9089C16.0732 11.1642 16.2089 11.2928 16.2089 11.4642V17.5571Z" fill="#8753D4"/>
<path d="M15.9089 22.2715H9.80893C9.05179 22.2715 8.4375 22.8858 8.4375 23.6429V29.7429C8.4375 30.5001 9.05179 31.1143 9.80893 31.1143H15.9089C16.6661 31.1143 17.2804 30.5001 17.2804 29.7429V23.6429C17.2804 22.8858 16.6661 22.2715 15.9089 22.2715ZM16.2089 29.7429C16.2089 29.9072 16.0732 30.0429 15.9089 30.0429H9.80893C9.64464 30.0429 9.50893 29.9072 9.50893 29.7429V23.6429C9.50893 23.4786 9.64464 23.3429 9.80893 23.3429H15.9089C16.0732 23.3429 16.2089 23.4786 16.2089 23.6429V29.7429Z" fill="#8753D4"/>
<path d="M15.9089 34.457H9.80893C9.05179 34.457 8.4375 35.0713 8.4375 35.8285V41.9213C8.4375 42.6856 9.05179 43.2999 9.80893 43.2999H15.9089C16.6661 43.2999 17.2804 42.6856 17.2804 41.9213V35.8285C17.2804 35.0713 16.6661 34.457 15.9089 34.457ZM16.2089 41.9213C16.2089 42.0927 16.0732 42.2285 15.9089 42.2285H9.80893C9.64464 42.2285 9.50893 42.0927 9.50893 41.9213V35.8285C9.50893 35.6642 9.64464 35.5285 9.80893 35.5285H15.9089C16.0732 35.5285 16.2089 35.6642 16.2089 35.8285V41.9213Z" fill="#8753D4"/>
<path d="M23.4146 12.7834H20.7974C20.5017 12.7834 20.2617 13.0234 20.2617 13.3192C20.2617 13.6149 20.5017 13.8549 20.7974 13.8549H23.4146C23.7103 13.8549 23.9503 13.6149 23.9503 13.3192C23.9503 13.0234 23.7103 12.7834 23.4146 12.7834Z" fill="#8753D4"/>
<path d="M26.692 13.8549H30.4905C30.7863 13.8549 31.0263 13.6149 31.0263 13.3192C31.0263 13.0234 30.7863 12.7834 30.4905 12.7834H26.692C26.3962 12.7834 26.1562 13.0234 26.1562 13.3192C26.1562 13.6149 26.3962 13.8549 26.692 13.8549Z" fill="#8753D4"/>
<path d="M23.4146 15.168H20.7974C20.5017 15.168 20.2617 15.408 20.2617 15.7037C20.2617 15.9994 20.5017 16.2394 20.7974 16.2394H23.4146C23.7103 16.2394 23.9503 15.9994 23.9503 15.7037C23.9503 15.408 23.7103 15.168 23.4146 15.168Z" fill="#8753D4"/>
<path d="M30.4928 15.168H29.5513C29.2556 15.168 29.0156 15.408 29.0156 15.7037C29.0156 15.9994 29.2556 16.2394 29.5513 16.2394H30.4928C30.7885 16.2394 31.0285 15.9994 31.0285 15.7037C31.0285 15.408 30.7885 15.168 30.4928 15.168Z" fill="#8753D4"/>
<path d="M23.4146 24.9658H20.7974C20.5017 24.9658 20.2617 25.2058 20.2617 25.5015C20.2617 25.7972 20.5017 26.0372 20.7974 26.0372H23.4146C23.7103 26.0372 23.9503 25.7972 23.9503 25.5015C23.9503 25.2058 23.7103 24.9658 23.4146 24.9658Z" fill="#8753D4"/>
<path d="M26.692 26.0372H31.2048C31.5005 26.0372 31.7405 25.7972 31.7405 25.5015C31.7405 25.2058 31.5005 24.9658 31.2048 24.9658H26.692C26.3963 24.9658 26.1562 25.2058 26.1562 25.5015C26.1562 25.7972 26.3963 26.0372 26.692 26.0372Z" fill="#8753D4"/>
<path d="M20.7974 28.4215H22.7003C22.996 28.4215 23.236 28.1815 23.236 27.8858C23.236 27.5901 22.996 27.3501 22.7003 27.3501H20.7974C20.5017 27.3501 20.2617 27.5901 20.2617 27.8858C20.2617 28.1815 20.5017 28.4215 20.7974 28.4215Z" fill="#8753D4"/>
<path d="M26.692 28.4215H28.4591C28.7548 28.4215 28.9948 28.1815 28.9948 27.8858C28.9948 27.5901 28.7548 27.3501 28.4591 27.3501H26.692C26.3963 27.3501 26.1562 27.5901 26.1562 27.8858C26.1562 28.1815 26.3963 28.4215 26.692 28.4215Z" fill="#8753D4"/>
<path d="M23.4146 37.1492H20.7974C20.5017 37.1492 20.2617 37.3892 20.2617 37.6849C20.2617 37.9806 20.5017 38.2206 20.7974 38.2206H23.4146C23.7103 38.2206 23.9503 37.9806 23.9503 37.6849C23.9503 37.3892 23.7103 37.1492 23.4146 37.1492Z" fill="#8753D4"/>
<path d="M26.3657 37.1492H25.9771C25.6814 37.1492 25.4414 37.3892 25.4414 37.6849C25.4414 37.9806 25.6814 38.2206 25.9771 38.2206H26.3657C26.6614 38.2206 26.9014 37.9806 26.9014 37.6849C26.9014 37.3892 26.6614 37.1492 26.3657 37.1492Z" fill="#8753D4"/>
<path d="M22.7003 39.5334H20.7974C20.5017 39.5334 20.2617 39.7734 20.2617 40.0692C20.2617 40.3649 20.5017 40.6049 20.7974 40.6049H22.7003C22.996 40.6049 23.236 40.3649 23.236 40.0692C23.236 39.7734 22.996 39.5334 22.7003 39.5334Z" fill="#8753D4"/>
<path d="M25.9772 39.5334H25.7115C25.4158 39.5334 25.1758 39.7734 25.1758 40.0692C25.1758 40.3649 25.4158 40.6049 25.7115 40.6049H25.9772C26.2729 40.6049 26.5129 40.3649 26.5129 40.0692C26.5129 39.7734 26.2729 39.5334 25.9772 39.5334Z" fill="#8753D4"/>
<path d="M14.2149 14.3784L12.8221 15.4784C12.6007 15.657 12.2721 15.6284 12.0792 15.407L11.4292 14.6356C11.2364 14.4142 11.2649 14.0713 11.4864 13.8856C11.7149 13.6927 12.0507 13.7213 12.2435 13.9427L12.5649 14.3213L13.5507 13.5427C13.7792 13.357 14.1149 13.3999 14.3007 13.6284C14.4864 13.857 14.4435 14.1999 14.2149 14.3784Z" fill="#8753D4"/>
<path d="M14.2149 26.5642L12.8221 27.6642C12.6007 27.8427 12.2721 27.8142 12.0792 27.5927L11.4292 26.8213C11.2364 26.5927 11.2649 26.257 11.4864 26.0642C11.7149 25.8713 12.0507 25.8999 12.2435 26.1284L12.5649 26.4999L13.5507 25.7213C13.7792 25.5427 14.1149 25.5784 14.3007 25.8142C14.4864 26.0427 14.4435 26.3784 14.2149 26.5642Z" fill="#8753D4"/>
<path d="M41.2111 29.6594L40.8911 30.1679C40.7332 30.4186 40.8089 30.7486 41.0589 30.9065C41.3089 31.0644 41.6403 30.9886 41.7975 30.7386L42.1175 30.2301C42.2753 29.9794 42.1996 29.6494 41.9496 29.4915C41.6996 29.3344 41.3689 29.4086 41.2111 29.6594Z" fill="#8753D4"/>
<path d="M44.5652 24.3257L42.3559 27.8392C42.198 28.0899 42.2738 28.4199 42.5238 28.5778C42.7723 28.7342 43.1038 28.6614 43.2623 28.4099L45.4716 24.8964C45.6295 24.6457 45.5538 24.3157 45.3038 24.1578C45.0523 23.9985 44.7216 24.0757 44.5652 24.3257Z" fill="#8753D4"/>
<path d="M46.6603 14.6857L43.7388 12.85C43.0031 12.3857 42.0317 12.6071 41.5674 13.3429C41.4246 13.5643 38.0674 18.9071 37.8531 19.2429V2.94285C37.8531 1.74999 36.8746 0.778564 35.6746 0.778564H5.61741C4.42455 0.778564 3.45312 1.74999 3.45312 2.94285V45.05C3.45312 46.25 4.42455 47.2214 5.61741 47.2214H35.6746C36.8746 47.2214 37.8531 46.25 37.8531 45.05V31.65C39.746 28.6286 35.7603 34.9786 47.1531 16.8571C47.6174 16.1214 47.396 15.1428 46.6603 14.6857ZM13.9674 1.84999H27.346V5.49285C27.346 5.75714 27.1246 5.97142 26.8603 5.97142H14.446C14.1817 5.97142 13.9674 5.75714 13.9674 5.49285V1.84999ZM36.7817 45.05C36.7817 45.6571 36.2817 46.15 35.6746 46.15H5.61741C5.01027 46.15 4.52455 45.6571 4.52455 45.05V2.94285C4.52455 2.34999 5.02455 1.84999 5.61741 1.84999H12.896V5.49285C12.896 6.34999 13.5888 7.04285 14.446 7.04285H26.8603C27.7174 7.04285 28.4174 6.34999 28.4174 5.49285V1.84999H35.6746C36.2817 1.84999 36.7817 2.34285 36.7817 2.94285V20.9571C36.7317 21.0286 29.096 33.1571 28.9674 33.4214C28.8603 33.6214 28.7888 33.8357 28.7603 34.0643L28.4388 36.9214L28.1246 39.6286C28.096 39.9214 28.2246 40.2 28.4746 40.3571C28.7246 40.5143 29.0317 40.5214 29.296 40.3643C31.1317 39.2 33.7317 37.5714 34.0674 37.3428C34.3031 37.1928 34.5031 36.9786 34.6246 36.7857L36.7817 33.35V45.05ZM29.8103 34.3214L33.346 36.5429C33.2746 36.5857 29.2746 39.1071 29.2674 39.1071L29.5031 37.0286L29.8103 34.3214ZM44.0317 19.8071C44.0031 19.85 43.9817 19.8786 43.9674 19.9071C43.9674 19.9143 43.9603 19.9214 43.9531 19.9286C43.946 19.9429 43.9388 19.95 43.9246 19.9714V19.9786C43.9103 20 43.896 20.0286 43.8674 20.0571C43.3317 20.9143 41.2103 24.2928 34.0317 35.7071L30.2603 33.3357C31.9817 30.6071 36.0817 24.0786 40.2603 17.4286L41.696 18.3357L37.3531 25.2357C37.196 25.4857 37.2746 25.8143 37.5246 25.9714C37.7746 26.1286 38.1031 26.0571 38.2603 25.8L42.6031 18.9L44.0317 19.8V19.8071ZM46.246 16.2857L44.6031 18.8929L40.8317 16.5214L42.4746 13.9143C42.6174 13.6786 42.9531 13.6214 43.1674 13.7571L46.0888 15.5929C46.3246 15.7357 46.396 16.05 46.246 16.2857Z" fill="#8753D4"/>
<path d="M46.2463 16.2856L44.6035 18.8928L40.832 16.5214L42.4749 13.9142C42.6177 13.6785 42.9535 13.6214 43.1677 13.7571L46.0892 15.5928C46.3249 15.7356 46.3963 16.0499 46.2463 16.2856Z" fill="#8753D4" fill-opacity="0.6"/>
<path d="M44.0329 19.8V19.8071C44.0043 19.85 43.9829 19.8786 43.9686 19.9071C43.9686 19.9143 43.9615 19.9214 43.9543 19.9286C43.9472 19.9428 43.94 19.95 43.9258 19.9714V19.9786C43.9115 20 43.8972 20.0286 43.8686 20.0571C43.3329 20.9143 41.2115 24.2928 34.0329 35.7071L30.2615 33.3357C31.9829 30.6071 36.0829 24.0786 40.2615 17.4286L41.6972 18.3357L37.3543 25.2357C37.1972 25.4857 37.2758 25.8143 37.5258 25.9714C37.7758 26.1286 38.1043 26.0571 38.2615 25.8L42.6043 18.9L44.0329 19.8Z" fill="#8753D4" fill-opacity="0.6"/>
<path d="M33.3481 36.543C33.2767 36.5858 29.2767 39.1072 29.2695 39.1072L29.5052 37.0287L29.8124 34.3215L33.3481 36.543Z" fill="#8753D4" fill-opacity="0.6"/>
<path d="M16.212 35.8286V41.9214C16.212 42.0929 16.0762 42.2286 15.912 42.2286H9.81196C9.64768 42.2286 9.51196 42.0929 9.51196 41.9214V35.8286C9.51196 35.6643 9.64768 35.5286 9.81196 35.5286H15.912C16.0762 35.5286 16.212 35.6643 16.212 35.8286Z" fill="#8753D4" fill-opacity="0.6"/>
<path d="M15.912 23.3428H9.81196C9.64768 23.3428 9.51196 23.4786 9.51196 23.6428V29.7428C9.51196 29.9071 9.64768 30.0428 9.81196 30.0428H15.912C16.0762 30.0428 16.212 29.9071 16.212 29.7428V23.6428C16.212 23.4786 16.0762 23.3428 15.912 23.3428ZM14.2191 26.5643L12.8262 27.6643C12.6048 27.8428 12.2762 27.8143 12.0834 27.5928L11.4334 26.8214C11.2405 26.5928 11.2691 26.2571 11.4905 26.0643C11.7191 25.8714 12.0548 25.9 12.2477 26.1286L12.5691 26.5L13.5548 25.7214C13.7834 25.5428 14.1191 25.5786 14.3048 25.8143C14.4905 26.0428 14.4477 26.3786 14.2191 26.5643Z" fill="#8753D4" fill-opacity="0.6"/>
<path d="M15.912 11.1643H9.81196C9.64768 11.1643 9.51196 11.2928 9.51196 11.4643V17.5571C9.51196 17.7286 9.64768 17.8643 9.81196 17.8643H15.912C16.0762 17.8643 16.212 17.7286 16.212 17.5571V11.4643C16.212 11.2928 16.0762 11.1643 15.912 11.1643ZM14.2191 14.3786L12.8262 15.4786C12.6048 15.6571 12.2762 15.6286 12.0834 15.4071L11.4334 14.6357C11.2405 14.4143 11.2691 14.0714 11.4905 13.8857C11.7191 13.6928 12.0548 13.7214 12.2477 13.9428L12.5691 14.3214L13.5548 13.5428C13.7834 13.3571 14.1191 13.4 14.3048 13.6286C14.4905 13.8571 14.4477 14.2 14.2191 14.3786Z" fill="#8753D4" fill-opacity="0.6"/>
<path d="M27.3473 1.8501V5.49296C27.3473 5.75724 27.1259 5.97153 26.8616 5.97153H14.4473C14.183 5.97153 13.9688 5.75724 13.9688 5.49296V1.8501H27.3473Z" fill="#8753D4" fill-opacity="0.6"/>
</svg>
