<svg width="34" height="40" viewBox="0 0 34 40" fill="none" xmlns="http://www.w3.org/2000/svg">
<path d="M30.5779 34.014V23.7511C30.5779 18.654 27.7436 14.214 23.5779 11.8883C24.0693 11.4654 24.3893 10.8483 24.3893 10.1454C24.3893 9.00825 23.555 8.06541 22.4693 7.87111L23.5607 4.16826C23.7664 3.39113 23.6007 2.57399 23.1036 1.93968C22.6121 1.29968 21.8693 0.93396 21.0636 0.93396C20.235 0.93396 19.5036 1.31684 19.035 1.91683C18.995 1.87111 18.9664 1.81398 18.9264 1.77398C18.4407 1.23683 17.7436 0.93396 17.0236 0.93396H16.9607C16.2407 0.93396 15.5436 1.23683 15.0579 1.77398C15.0179 1.81398 14.9893 1.87111 14.9493 1.91683C14.4807 1.31684 13.7493 0.93396 12.9264 0.93396C12.115 0.93396 11.3721 1.29968 10.8807 1.93968C10.3835 2.57399 10.2179 3.39113 10.4293 4.18539L11.515 7.87111C10.4293 8.06541 9.60069 9.00825 9.60069 10.1454C9.60069 10.8483 9.91501 11.4654 10.4064 11.8883C6.24069 14.214 3.40642 18.654 3.40642 23.7511V34.014C2.70926 34.014 2.07498 34.294 1.61785 34.7511C1.16071 35.2083 0.875 35.8425 0.875 36.5397C0.875 37.934 2.01214 39.0654 3.40642 39.0654H30.5778C31.9721 39.0654 33.1093 37.934 33.1093 36.5397C33.1093 35.1454 31.9722 34.014 30.5779 34.014ZM19.6236 3.39113C19.6922 2.64256 20.3093 2.07682 21.0636 2.07682C21.5093 2.07682 21.9264 2.28256 22.2007 2.63684C22.475 2.99113 22.5664 3.44826 22.4579 3.86539L21.2922 7.8311H19.195L19.6236 3.39113ZM15.9036 2.54539C16.1779 2.24255 16.555 2.07682 16.9607 2.07682H17.0236C17.4293 2.07682 17.8065 2.24255 18.0865 2.54539C18.355 2.83683 18.4807 3.21399 18.4579 3.60256L18.0464 7.83111H15.9379L15.5264 3.61397C15.5036 3.21399 15.6293 2.83683 15.9036 2.54539ZM11.7836 2.63684C12.0579 2.28255 12.475 2.07682 12.9264 2.07682C13.675 2.07682 14.2922 2.64256 14.3607 3.39685L14.7893 7.83111H12.6979L11.5321 3.88255C11.4179 3.44826 11.5093 2.99113 11.7836 2.63684ZM11.915 8.97397H22.075C22.7207 8.97397 23.2464 9.4997 23.2464 10.1454C23.2464 10.7911 22.7207 11.3168 22.075 11.3168H11.915C11.2693 11.3168 10.7436 10.7911 10.7436 10.1454C10.7436 9.4997 11.2693 8.97397 11.915 8.97397ZM4.54931 23.7511C4.54931 18.7397 7.53787 14.4197 11.8179 12.454C11.8464 12.454 11.8807 12.4597 11.915 12.4597H22.075C22.1036 12.4597 22.1379 12.454 22.1664 12.454C26.4465 14.4197 29.435 18.7397 29.435 23.7511V34.0082H4.54931V23.7511ZM30.5779 37.9226H3.40645C2.64072 37.9226 2.01789 37.2997 2.01789 36.5397C2.01789 35.774 2.64073 35.1568 3.40645 35.1568H30.5779C31.3436 35.1568 31.9664 35.774 31.9664 36.5397C31.9664 37.2997 31.3436 37.9226 30.5779 37.9226Z" fill="#8753D4"/>
<path d="M31.9681 36.5395C31.9681 37.2995 31.3452 37.9223 30.5795 37.9223H3.4081C2.64237 37.9223 2.01953 37.2995 2.01953 36.5395C2.01953 35.7738 2.64237 35.1566 3.4081 35.1566H30.5795C31.3452 35.1566 31.9681 35.7738 31.9681 36.5395Z" fill="#8753D4" fill-opacity="0.6"/>
<path d="M23.2411 10.1455C23.2411 10.7911 22.7154 11.3169 22.0697 11.3169H11.9097C11.264 11.3169 10.7383 10.7911 10.7383 10.1455C10.7383 9.49974 11.264 8.974 11.9097 8.974H22.0697C22.7154 8.974 23.2411 9.49974 23.2411 10.1455Z" fill="#8753D4" fill-opacity="0.6"/>
<path d="M16.9907 16.094C12.5393 16.094 8.92212 19.7169 8.92212 24.1683C8.92212 28.6197 12.5393 32.2426 16.9907 32.2426C21.4479 32.2426 25.0707 28.6197 25.0707 24.1683C25.0707 19.7169 21.4479 16.094 16.9907 16.094ZM16.9907 31.0997C13.1736 31.0997 10.065 27.9911 10.065 24.1683C10.065 20.3454 13.1735 17.2369 16.9907 17.2369C20.8135 17.2369 23.9278 20.3454 23.9278 24.1683C23.9278 27.9911 20.8136 31.0997 16.9907 31.0997Z" fill="#8753D4"/>
<path d="M16.9882 17.2369C13.1711 17.2369 10.0625 20.3454 10.0625 24.1683C10.0625 27.9912 13.1711 31.0997 16.9882 31.0997C20.8111 31.0997 23.9254 27.9912 23.9254 24.1683C23.9254 20.3454 20.8111 17.2369 16.9882 17.2369ZM16.9997 23.5969C18.1311 23.5969 19.0568 24.5226 19.0568 25.6597C19.0568 26.5969 18.4225 27.3797 17.5711 27.6312V27.9626C17.5711 28.2826 17.3139 28.534 16.9997 28.534C16.6797 28.534 16.4282 28.2826 16.4282 27.9626V27.6312C15.5711 27.3797 14.9368 26.5969 14.9368 25.6597C14.9368 25.3454 15.194 25.0883 15.5082 25.0883C15.8225 25.0883 16.0797 25.3454 16.0797 25.6597C16.0797 26.1626 16.4911 26.574 16.9997 26.574C17.5025 26.574 17.914 26.1626 17.914 25.6597C17.914 25.1512 17.5025 24.7397 16.9997 24.7397C15.8625 24.7397 14.9368 23.8197 14.9368 22.6826C14.9368 21.7455 15.5711 20.9626 16.4282 20.7112V20.374C16.4282 20.0597 16.6797 19.8026 16.9997 19.8026C17.3139 19.8026 17.5711 20.0597 17.5711 20.374V20.7112C18.4225 20.9626 19.0568 21.7455 19.0568 22.6826C19.0568 22.9969 18.7997 23.254 18.4854 23.254C18.1711 23.254 17.914 22.9969 17.914 22.6826C17.914 22.174 17.5025 21.7626 16.9997 21.7626C16.4911 21.7626 16.0797 22.174 16.0797 22.6826C16.0797 23.1854 16.4911 23.5969 16.9997 23.5969Z" fill="#8753D4" fill-opacity="0.6"/>
<path d="M19.0578 25.6596C19.0578 26.5968 18.4234 27.3796 17.572 27.6311V27.9625C17.572 28.2825 17.3149 28.5339 17.0006 28.5339C16.6806 28.5339 16.4292 28.2825 16.4292 27.9625V27.6311C15.572 27.3796 14.9377 26.5968 14.9377 25.6596C14.9377 25.3454 15.1949 25.0882 15.5092 25.0882C15.8235 25.0882 16.0806 25.3454 16.0806 25.6596C16.0806 26.1625 16.492 26.5739 17.0006 26.5739C17.5035 26.5739 17.9149 26.1625 17.9149 25.6596C17.9149 25.1511 17.5035 24.7396 17.0006 24.7396C15.8635 24.7396 14.9377 23.8196 14.9377 22.6825C14.9377 21.7454 15.572 20.9625 16.4292 20.7111V20.3739C16.4292 20.0596 16.6806 19.8025 17.0006 19.8025C17.3149 19.8025 17.572 20.0596 17.572 20.3739V20.7111C18.4234 20.9625 19.0578 21.7454 19.0578 22.6825C19.0578 22.9968 18.8006 23.2539 18.4863 23.2539C18.172 23.2539 17.9149 22.9968 17.9149 22.6825C17.9149 22.1739 17.5035 21.7625 17.0006 21.7625C16.492 21.7625 16.0806 22.1739 16.0806 22.6825C16.0806 23.1853 16.492 23.5968 17.0006 23.5968C18.132 23.5968 19.0578 24.5225 19.0578 25.6596Z" fill="white"/>
</svg>
